<svg width="24" height="24" viewBox="0 0 24 24" fill="none" xmlns="http://www.w3.org/2000/svg">
<g clip-path="url(#clip0_1316_5993)">
<path d="M12.0001 5.8307L14.4601 8.2907C14.8501 8.6807 15.4801 8.6807 15.8701 8.2907C16.2601 7.9007 16.2601 7.2707 15.8701 6.8807L12.7001 3.7007C12.3101 3.3107 11.6801 3.3107 11.2901 3.7007L8.12014 6.8807C7.73014 7.2707 7.73014 7.9007 8.12014 8.2907C8.51014 8.6807 9.14014 8.6807 9.53014 8.2907L12.0001 5.8307ZM12.0001 18.1707L9.54014 15.7107C9.15014 15.3207 8.52014 15.3207 8.13014 15.7107C7.74014 16.1007 7.74014 16.7307 8.13014 17.1207L11.3001 20.3007C11.6901 20.6907 12.3201 20.6907 12.7101 20.3007L15.8801 17.1307C16.2701 16.7407 16.2701 16.1107 15.8801 15.7207C15.4901 15.3307 14.8601 15.3307 14.4701 15.7207L12.0001 18.1707Z" fill="white"/>
</g>
<defs>
<clipPath id="clip0_1316_5993">
<rect width="24" height="24" fill="white"/>
</clipPath>
</defs>
</svg>
