<svg width="48" height="49" viewBox="0 0 48 49" fill="none" xmlns="http://www.w3.org/2000/svg">
<mask id="mask0_1388_32183" style="mask-type:alpha" maskUnits="userSpaceOnUse" x="0" y="0" width="48" height="49">
<circle cx="24" cy="24.0254" r="22.5" fill="#C4C4C4" stroke="black" stroke-width="3"/>
</mask>
<g mask="url(#mask0_1388_32183)">
<circle cx="24" cy="24.0254" r="22.5" fill="white" stroke="#171717" stroke-width="3"/>
<circle cx="24" cy="24.0254" r="22.5" fill="white" stroke="#171717" stroke-width="3"/>
</g>
<g clip-path="url(#clip0_1388_32183)">
<path d="M26.9999 23.6183C27.0004 24.7722 26.7923 25.9166 26.3855 26.9963C25.3054 27.4031 24.1607 27.6115 23.0065 27.6117H22.993C21.8045 27.6102 20.6657 27.393 19.615 26.9968C19.208 25.917 18.9996 24.7724 19 23.6183V23.6043C18.9994 22.4507 19.2074 21.3065 19.6138 20.2268C20.6938 19.8193 21.8387 19.6108 22.9931 19.6113H23.0066C24.1609 19.6108 25.3057 19.8193 26.3856 20.2267C26.7925 21.3063 27.0006 22.4505 27 23.6042V23.6182L26.9999 23.6183ZM38.7778 20.9447H29.4382L36.0419 14.3406C35.5236 13.6125 34.9454 12.9289 34.3134 12.297V12.2965C33.6813 11.6652 32.998 11.0875 32.2703 10.5695L25.6661 17.1736V7.83408C24.7878 7.68632 23.8987 7.61181 23.008 7.61133L22.9915 7.61133C22.0855 7.61183 21.1981 7.68883 20.3334 7.83408V17.1736L13.7292 10.5695C13.0014 11.0874 12.3183 11.6655 11.6871 12.2976L11.6836 12.3001C11.0527 12.9312 10.4753 13.6137 9.9575 14.3406L16.5621 20.9447H7.22275C7.22275 20.9447 7 22.6988 7 23.6058V23.6168C7 24.5238 7.07687 25.4127 7.22275 26.278H16.5623L9.95762 32.8821C10.9966 34.3401 12.2712 35.6147 13.7292 36.6537L20.3334 30.0491V39.3891C21.2108 39.5361 22.0988 39.6104 22.9884 39.6113H23.011C23.9006 39.6105 24.7886 39.5362 25.666 39.3891V30.0491L32.2708 36.6537C32.9983 36.1354 33.6815 35.5576 34.3134 34.9262L34.3149 34.9247C34.946 34.2927 35.5237 33.6095 36.0419 32.8821L29.4373 26.278H38.7778C38.9231 25.4142 38.999 24.528 39 23.623V23.5997C38.999 22.6947 38.9231 21.8085 38.7778 20.9447Z" fill="#FF4A00"/>
</g>
<defs>
<clipPath id="clip0_1388_32183">
<rect width="32" height="32" fill="white" transform="translate(7 7.61133)"/>
</clipPath>
</defs>
</svg>
